<?xml version="1.0" standalone="no"?>
<!DOCTYPE svg PUBLIC "-//W3C//DTD SVG 20010904//EN"
 "http://www.w3.org/TR/2001/REC-SVG-20010904/DTD/svg10.dtd">
<svg version="1.0" xmlns="http://www.w3.org/2000/svg"
 width="1080.000000pt" height="1080.000000pt" viewBox="0 0 1080.000000 1080.000000"
 preserveAspectRatio="xMidYMid meet">

<g transform="translate(0.000000,1080.000000) scale(0.100000,-0.100000)"
fill="#000000" stroke="none">
<path d="M0 5400 l0 -5400 5400 0 5400 0 0 5400 0 5400 -5400 0 -5400 0 0
-5400z m5706 4825 c27 -8 64 -27 83 -43 l34 -28 -31 -47 c-40 -57 -49 -63 -70
-44 -59 51 -182 69 -236 34 -33 -22 -44 -63 -25 -96 15 -28 59 -45 194 -75 39
-9 88 -29 110 -44 103 -71 115 -242 23 -334 -103 -103 -366 -87 -475 28 l-33
36 20 26 c11 15 31 40 44 56 l24 29 28 -33 c40 -47 116 -80 187 -80 51 0 62 4
88 29 45 46 37 106 -19 135 -16 8 -70 24 -120 36 -158 37 -227 104 -226 220 0
94 48 161 141 195 51 18 197 19 259 0z m762 -18 c50 -27 112 -94 112 -123 0
-14 -86 -73 -107 -74 -6 0 -20 16 -32 35 -29 49 -77 68 -161 63 -80 -4 -119
-28 -152 -96 -20 -41 -23 -61 -22 -152 1 -116 13 -157 61 -202 15 -15 41 -32
56 -37 39 -15 111 -14 150 3 34 14 87 68 87 89 1 36 17 38 73 11 32 -16 57
-34 57 -42 0 -18 -27 -70 -57 -110 -13 -18 -48 -45 -76 -60 -48 -25 -61 -27
-162 -27 -96 0 -116 3 -155 24 -69 37 -98 62 -129 111 -48 75 -64 148 -59 271
4 96 8 114 37 173 37 75 91 127 165 156 42 17 69 20 156 17 91 -3 112 -7 158
-30z m-2142 4 c49 -22 80 -60 94 -112 17 -61 3 -108 -45 -157 l-43 -43 36 -15
c49 -20 71 -42 93 -89 39 -85 15 -194 -56 -252 -54 -45 -101 -53 -314 -53
l-191 0 0 370 0 370 193 0 c165 0 198 -3 233 -19z m734 -3 c62 -32 90 -77 90
-145 0 -62 -17 -100 -59 -136 l-31 -25 46 -22 c82 -40 118 -129 94 -230 -15
-61 -47 -103 -104 -133 -38 -20 -57 -22 -258 -25 l-218 -3 0 370 0 371 198 0
c185 0 201 -1 242 -22z"/>
<path d="M4040 10030 l0 -90 94 0 c79 0 97 3 120 21 22 17 26 28 26 69 0 41
-4 52 -26 69 -23 18 -41 21 -120 21 l-94 0 0 -90z"/>
<path d="M4047 9823 c-4 -3 -7 -53 -7 -111 l0 -104 120 4 c142 4 160 14 167
95 6 59 -19 97 -75 113 -41 11 -195 14 -205 3z"/>
<path d="M4770 10030 l0 -90 95 0 c88 0 98 2 120 25 19 18 25 35 25 65 0 30
-6 47 -25 65 -22 23 -32 25 -120 25 l-95 0 0 -90z"/>
<path d="M4770 9721 l0 -111 105 0 c128 0 159 12 176 69 9 29 9 47 -1 75 -19
57 -46 69 -171 74 l-109 5 0 -112z"/>
</g>
</svg>
